HIERARCHY
ROOT Hips
{
  OFFSET 263.056 91.6644 -274.608
  CHANNELS 6 Xposition Yposition Zposition Zrotation Xrotation Yrotation
  JOINT LeftUpLeg
  {
    OFFSET 8.64259 1.95398 -2.38835
    CHANNELS 3 Zrotation Xrotation Yrotation
    JOINT LeftLeg
    {
      OFFSET 43.7702 0 0
      CHANNELS 3 Zrotation Xrotation Yrotation
      JOINT LeftFoot
      {
        OFFSET 40.6238 0 0
        CHANNELS 3 Zrotation Xrotation Yrotation
        JOINT LeftToeBase
        {
          OFFSET 12.7242 0 0
          CHANNELS 3 Zrotation Xrotation Yrotation
          End Site
          {
            OFFSET 0 0 0
          }
        }
      }
    }
  }
  JOINT RightUpLeg
  {
    OFFSET -8.2249 1.95398 -2.59336
    CHANNELS 3 Zrotation Xrotation Yrotation
    JOINT RightLeg
    {
      OFFSET 43.5653 0 0
      CHANNELS 3 Zrotation Xrotation Yrotation
      JOINT RightFoot
      {
        OFFSET 40.6238 0 0
        CHANNELS 3 Zrotation Xrotation Yrotation
        JOINT RightToeBase
        {
          OFFSET 12.7242 0 0
          CHANNELS 3 Zrotation Xrotation Yrotation
          End Site
          {
            OFFSET 0 0 0
          }
        }
      }
    }
  }
  JOINT Spine
  {
    OFFSET 0.165834 0.87714 6.61349
    CHANNELS 3 Zrotation Xrotation Yrotation
    JOINT Spine1
    {
      OFFSET 7.38963 1.71661e-005 0
      CHANNELS 3 Zrotation Xrotation Yrotation
      JOINT Spine2
      {
        OFFSET 11.9445 1.14441e-005 0
        CHANNELS 3 Zrotation Xrotation Yrotation
        JOINT Spine3
        {
          OFFSET 14.7254 4.19617e-005 0
          CHANNELS 3 Zrotation Xrotation Yrotation
          JOINT Spine4
          {
            OFFSET 10.9679 0 0
            CHANNELS 3 Zrotation Xrotation Yrotation
            JOINT RightShoulder
            {
              OFFSET 2.46616 -1.6653 3.69651
              CHANNELS 3 Zrotation Xrotation Yrotation
              JOINT RightArm
              {
                OFFSET 13.0012 0 0
                CHANNELS 3 Zrotation Xrotation Yrotation
                JOINT RightForeArm
                {
                  OFFSET 28.7848 1.52588e-005 0
                  CHANNELS 3 Zrotation Xrotation Yrotation
                  JOINT RightHand
                  {
                    OFFSET 26.5688 1.52588e-005 0
                    CHANNELS 3 Zrotation Xrotation Yrotation
                    End Site
                    {
                      OFFSET 0 0 0
                    }
                  }
                }
              }
            }
            JOINT LeftShoulder
            {
              OFFSET 2.38034 -1.29275 -3.7523
              CHANNELS 3 Zrotation Xrotation Yrotation
              JOINT LeftArm
              {
                OFFSET 16.3182 6.10352e-005 0
                CHANNELS 3 Zrotation Xrotation Yrotation
                JOINT LeftForeArm
                {
                  OFFSET 27.0901 0 0
                  CHANNELS 3 Zrotation Xrotation Yrotation
                  JOINT LeftHand
                  {
                    OFFSET 24.5451 1.52588e-005 0
                    CHANNELS 3 Zrotation Xrotation Yrotation
                    End Site
                    {
                      OFFSET 0 0 0
                    }
                  }
                }
              }
            }
            JOINT Neck
            {
              OFFSET 5.0226 -0.0266342 0
              CHANNELS 3 Zrotation Xrotation Yrotation
              JOINT Head
              {
                OFFSET 6.69364 2.86102e-005 0
                CHANNELS 3 Zrotation Xrotation Yrotation
                End Site
                {
                  OFFSET 0 0 0
                }
              }
            }
          }
        }
      }
    }
  }
}
MOTION
Frames:	12
Frame Time:	0.0416667
-272.92 92.0144 -299.412 -89.7052 14.7704 -99.7941 -174.391 3.84689 99.928 -44.8143 54.401 5.71802 14.3061 -35.8172 -8.09295 122.951 32.7166 -68.5398 166.251 32.5168 73.4582 -45.4509 13.6568 8.67969 59.519 -0.902284 -0.441436 41.531 1.00571 4.52092 -6.97913 4.79225 -89.6711 17.6361 -13.5617 3.15599 6.03194 -13.4096 3.75991 -17.0849 -13.871 -1.14675 2.92778 -13.871 -1.14675 46.6155 -36.2486 -171.07 27.4572 -0.492488 70.108 -12.0983 -11.2673 -44.5671 -15.1887 -1.18096 4.2039 -86.1715 -53.1432 84.9317 -31.8957 5.32112 18.4703 -80.32 -34.5715 -84.5315 -95.5158 -38.0512 31.7163 -44.0838 24.9767 36.6452 36.8984 32.1519 -5.5534 
-270.845 92.8251 -297.666 -87.5325 30.5067 -98.6128 -176.501 1.52004 93.181 -51.7476 34.1696 8.60008 43.4572 -14.9165 -0.756077 51.6244 23.0996 -4.95793 173.306 30.303 81.4904 -32.8 13.4205 2.75375 54.8851 -0.619551 -0.146448 39.7957 0.908496 7.3361 -3.86032 5.95608 -89.6856 15.0574 -7.47855 1.76248 3.40582 -7.39371 2.09155 -19.2988 -7.66068 -0.579855 0.713842 -7.66068 -0.579856 58.4366 -40.1588 -152.702 34.1082 4.50998 60.8785 -10.6601 -5.72631 -48.2674 -20.7637 -1.60885 4.17656 -118.657 -45.9088 35.7195 -13.1992 -19.0667 35.6687 -81.6009 -1.53052 -89.7268 -96.1513 -46.4094 42.2461 -35.0615 14.051 22.727 33.6862 17.7626 -1.14835 
-267.028 94.3276 -292.797 -82.8529 43.6709 -98.2699 -173.792 -2.82503 91.5352 -39.7134 25.0321 1.63943 53.0216 -4.29178 3.12939 36.4482 8.80299 7.20408 -179.423 27.3467 86.6375 -11.7434 5.26416 -1.18376 44.4467 2.89664 2.83153 22.9157 -0.771784 5.71038 -1.42903 7.08633 -89.3655 12.7257 -2.53592 1.56556 1.05677 -2.46451 1.67573 -21.5014 -2.88909 0.730133 -1.4887 -2.8891 0.730128 71.3507 -47.4987 -129.751 36.8665 0.0686225 45.2744 -7.06189 -3.54847 -52.4108 -18.7879 -0.886013 0.442449 -112.549 -40.6357 41.1754 -8.82109 -15.8301 29.3288 -11.6202 2.37017 -106.374 -62.9041 -9.20724 15.9047 -14.4903 7.71238 6.94926 22.04 7.53381 -0.340825 
-260.767 95.1282 -285.753 -78.5978 46.4127 -101.88 -174.613 1.25937 89.028 -34.4764 22.02 0.139616 54.4166 -1.62004 4.53654 46.2812 20.6746 5.79572 -178.434 31.6597 85.7874 -10.0995 -5.37752 -1.68794 49.2672 3.86069 3.29967 12.2308 -2.73376 8.7159 -0.951592 7.56481 -89.1233 11.7534 -1.48092 1.90303 0.0818594 -1.39576 1.96634 -22.4537 -1.98433 1.37002 -2.4411 -1.98435 1.37002 79.3497 -50.6866 -116.577 36.4963 -5.65766 36.2297 -6.48638 -3.52354 -56.9124 -18.0495 -0.747422 -0.254087 -103.203 -40.6116 55.1851 -15.0399 -6.53758 18.0973 9.82664 -4.56862 -108.936 27.1127 3.34209 10.072 6.10638 7.90075 3.13 7.27932 6.99888 -1.48106 
-254.582 94.9646 -278.823 -79.4275 48.9626 -99.3943 -174.564 5.12835 88.9017 -34.2591 22.0004 -0.191782 56.2266 0.118107 7.04569 47.4568 22.1976 6.24325 -176.565 32.4792 87.5415 -21.2519 -3.97958 -3.58218 39.2796 5.92695 5.98625 62.9684 3.7519 6.69876 -0.519186 7.88035 -89.3014 11.1158 -0.709068 1.45924 -0.555838 -0.644176 1.48901 -23.0879 -1.11483 1.17872 -3.07525 -1.11483 1.17871 80.1523 -53.6839 -114.256 32.713 -8.97966 31.3041 -6.96038 -3.05368 -62.7939 -19.657 -0.945828 0.56709 -99.5936 -40.8609 60.9671 -20.5493 0.83733 14.3786 12.3619 -5.94396 -103.812 26.2501 1.99011 3.77304 12.7466 6.7629 8.02851 3.3686 4.24664 -5.61862 
-248.876 94.2905 -271.626 -82.22 52.7992 -95.463 -174.417 8.29347 88.7986 -33.5636 19.3142 -0.416626 54.9332 -0.915588 6.08719 49.4183 24.7871 7.03526 -177.761 33.047 89.8361 -42.3566 1.38058 -3.50843 53.3192 1.76792 1.51799 60.7134 3.48781 6.69128 -0.128693 8.04653 -89.5241 10.7798 -0.0366411 0.949895 -0.891523 0.00520732 0.950578 -23.4241 -0.320406 0.894979 -3.41148 -0.320423 0.894962 79.1643 -52.7586 -116.018 29.744 -11.0567 25.3818 -9.00642 -3.77157 -66.3447 -22.8785 -1.27974 1.61622 -99.4075 -41.2426 61.4271 -25.4322 3.9171 16.6944 11.2955 -5.42079 -94.6214 26.695 2.03049 3.79309 10.6165 7.6887 6.85639 3.92929 5.65142 -4.03358 
-242.749 92.8462 -264.739 -86.5016 54.7703 -91.1948 -174.153 13.251 88.6672 -39.6751 15.8664 -0.412044 58.6855 4.3814 10.9795 51.3853 25.7168 2.85181 -179.081 30.7745 90.7891 -60.4162 7.28549 -4.07882 60.0761 -1.36889 -0.756174 47.9213 1.57906 3.75473 0.149626 8.2602 -89.6921 10.3527 0.439091 0.573287 -1.31824 0.463915 0.553411 -23.8527 0.246504 0.678754 -3.84007 0.2465 0.678742 79.7963 -51.4406 -115.623 26.1185 -12.0248 17.5467 -12.6466 -3.01032 -70.3946 -24.0342 -1.53983 2.6977 -100.032 -42.4467 60.9601 -29.5402 5.53505 17.8865 7.58615 -4.02781 -84.4811 28.5779 1.81462 2.55956 9.96213 8.56224 4.69057 3.272 7.21969 -1.31458 
-236.882 91.198 -258.637 -87.4786 55.8544 -90.1631 -174.248 18.934 88.5041 -43.2111 14.9587 -0.239143 62.754 10.6207 16.361 48.2334 21.0605 -1.39957 -179.825 26.2887 90.2632 -70.2868 9.18595 -4.8468 57.7517 -1.73893 -0.973373 46.1834 1.20766 1.57036 0.391031 8.24456 -89.7327 10.3829 0.901472 0.452195 -1.28778 0.920473 0.412072 -23.824 0.723878 0.702221 -3.81137 0.72387 0.702221 80.1869 -49.4928 -115.818 24.0234 -11.4223 10.216 -11.9585 -0.782383 -75.3233 -25.5752 -1.89001 3.74845 -100.538 -42.7668 60.3126 -33.7642 5.57293 19.8731 6.4371 -0.929354 -70.3191 29.3067 2.5163 4.80591 12.1646 7.97003 3.81607 0.991536 6.79138 -1.09315 
-231.049 90.3397 -253.148 -89.0962 54.8286 -89.7568 -174.205 23.1648 87.8587 -43.3395 10.7207 -0.253445 65.0001 11.5914 14.5756 44.8378 16.5315 -6.63409 178.831 17.8291 88.1456 -72.4704 8.77841 -5.29696 53.8707 -1.03184 -0.493109 46.3407 1.15769 0.856412 0.469141 8.15218 -89.572 10.5654 1.13114 0.749085 -1.10522 1.16303 0.698576 -23.6412 0.853723 1.0544 -3.6285 0.853736 1.05441 80.5237 -48.9398 -115.536 22.2148 -11.3212 5.59534 -16.2455 -1.17379 -79.0765 -26.2439 -1.74762 3.1082 -100.516 -41.9331 59.9844 -38.4784 8.24624 24.7436 1.81656 -1.38632 -61.0467 32.3952 2.42349 3.64824 12.0057 6.55004 1.31938 0.264743 6.05953 0.13555 
-224.854 91.625 -247.656 -92.67 51.9616 -87.2952 -175.39 23.5958 88.5502 -36.8939 14.0206 0.0867573 61.0865 6.50611 11.8832 37.7645 9.61425 -6.7585 175.799 5.86583 85.9727 -64.8899 8.26965 -4.60206 49.6174 0.757686 0.897642 41.5831 0.927549 2.67234 0.654338 8.26191 -89.5724 10.3454 1.49925 0.71806 -1.32487 1.52941 0.651367 -23.8633 1.21416 1.13547 -3.85064 1.21415 1.13548 82.1978 -47.4171 -113.596 23.0134 -11.5181 3.5757 -17.2925 0.65891 -84.1869 -25.4623 -1.63194 2.80267 -100.549 -41.7918 59.8723 -42.0797 9.96245 30.7187 0.0940695 -2.24739 -64.0743 34.9665 2.94859 4.61488 10.4766 4.08334 0.722089 0.667038 3.81828 0.137368 
-218.481 94.3979 -241.985 -89.5006 50.4172 -89.6112 -175.86 22.2387 90.3064 -17.5231 17.9825 -0.0740206 48.9496 -6.15608 3.74196 30.4287 2.31313 -6.00158 175.68 -1.44975 86.6572 -51.1597 6.50767 -4.38692 49.7483 1.75593 1.67356 33.918 0.256483 2.60028 1.01543 8.00662 -89.6325 10.857 2.19169 0.526596 -0.812165 2.21273 0.429573 -23.3586 1.93206 1.16114 -3.34596 1.93205 1.16114 82.5407 -47.0948 -113.191 22.4521 -13.1977 4.43702 -19.697 2.41801 -88.1919 -26.291 -1.75161 3.16372 -98.0416 -40.8841 63.4494 -44.6969 11.5352 32.8623 -0.619675 -2.51879 -66.2873 35.8735 2.65076 3.52509 9.16965 1.68164 1.81442 0.717325 1.2162 -0.999387 
-211.758 97.0437 -235.914 -84.7565 48.8428 -91.9951 -174.94 24.5129 92.4041 -5.18589 19.5233 -1.04473 42.6975 -14.0287 -5.31442 26.8253 -2.95542 4.81039 177.517 -4.18447 89.4366 -38.2154 0.930247 -4.10067 45.4642 3.43653 3.24252 30.6103 -0.0753994 4.60831 1.16295 7.68457 -89.8533 11.5066 2.38235 0.0499602 -0.162176 2.38224 -0.0550151 -22.7136 2.25714 0.764015 -2.70092 2.25714 0.764012 83.3386 -46.5817 -112.15 22.0407 -17.6501 5.66875 -22.1507 4.88891 -90.588 -24.1519 -2.16811 6.04299 -96.2718 -41.0707 66.3677 -45.3323 8.95428 33.7397 -0.136586 -3.07459 -70.4358 36.2047 2.78718 3.83981 9.75914 0.559875 4.21304 -0.709254 -0.462304 -2.9217 
